<svg width="34" height="31" viewBox="0 0 34 31" fill="none" xmlns="http://www.w3.org/2000/svg">
<path d="M13.2041 19.7656L13.2041 19.7656L13.203 19.7658C12.5135 19.8966 11.6491 19.9515 10.6299 19.9515C9.60078 19.9515 8.73577 19.8857 8.0343 19.7657C7.33313 19.6347 6.7773 19.4392 6.35232 19.1598C5.92821 18.881 5.63188 18.517 5.44105 18.0774C5.2499 17.6371 5.15293 17.0858 5.15293 16.4324C5.15293 15.6811 5.27133 15.0079 5.50713 14.4008C5.74258 13.7946 6.09552 13.2863 6.55561 12.8642C7.01537 12.4425 7.58306 12.1171 8.27094 11.8888C8.95885 11.6605 9.7341 11.5404 10.619 11.5404C11.504 11.5404 12.2791 11.6605 12.9559 11.8887C13.6329 12.1169 14.2009 12.4424 14.6718 12.8645C15.1318 13.2865 15.4846 13.7948 15.72 14.4008C15.9558 15.0079 16.0742 15.6811 16.0742 16.4324C16.0742 17.0857 15.9773 17.6375 15.7965 18.0786C15.6169 18.5166 15.3105 18.8805 14.8857 19.1598C14.4602 19.4395 13.9041 19.6458 13.2041 19.7656ZM11.4335 17.3619C11.4687 17.3619 11.505 17.3547 11.5374 17.3351C11.5692 17.3158 11.593 17.287 11.6084 17.2507C11.6458 17.1858 11.6581 17.1209 11.6581 17.0585C11.6581 16.9948 11.6453 16.9285 11.606 16.8623C11.5637 16.791 11.5013 16.7552 11.4335 16.7552H9.77192C9.73667 16.7552 9.70038 16.7623 9.66797 16.782C9.63623 16.8013 9.61238 16.83 9.59702 16.8664C9.5596 16.9312 9.54733 16.9961 9.54733 17.0585C9.54733 17.1223 9.56012 17.1885 9.5994 17.2548C9.64172 17.3261 9.70414 17.3619 9.77192 17.3619H11.4335Z" fill="#FF8821" stroke="white" stroke-width="0.12337"/>
<path d="M17.7609 17.8291L17.7608 17.8291C17.7925 18.0426 17.8559 18.2463 17.9305 18.4296C18.0862 18.7966 18.3991 19.1059 18.9015 19.3763C19.4017 19.6345 20.1091 19.809 21.0164 19.8746C21.8075 19.9294 22.588 19.9513 23.347 19.9513C24.1047 19.9513 24.8948 19.9075 25.6956 19.809C26.0943 19.7545 26.4609 19.6782 26.8062 19.5909C27.1502 19.493 27.4481 19.3742 27.6913 19.2245L27.6923 19.2239L27.6923 19.2239C27.9453 19.0747 28.133 18.8947 28.2683 18.6737C28.4018 18.4556 28.465 18.1832 28.444 17.8642L28.4439 17.8623L28.4439 17.8623C28.4334 17.5537 28.3494 17.3023 28.2164 17.1162C28.0827 16.9289 27.8859 16.7707 27.6125 16.6537C27.3374 16.536 27.007 16.4601 26.5969 16.4055C26.1879 16.3511 25.7239 16.3292 25.1932 16.3292C24.5117 16.3292 23.8192 16.373 23.1157 16.4605C22.4219 16.5482 21.7838 16.6358 21.211 16.745C21.1216 16.7701 21.0415 16.7579 20.9843 16.729L20.9742 16.7239L20.9748 16.7231C20.9324 16.6909 20.8744 16.6413 20.8744 16.5641L20.8744 16.5617C20.8744 16.517 20.8744 16.4509 20.9357 16.3889C20.9909 16.3331 21.0583 16.3076 21.1362 16.2851L21.1391 16.2843L21.1391 16.2844C21.7944 16.1297 22.5468 16.0195 23.3957 15.9425C24.2454 15.8653 25.2358 15.8324 26.3667 15.8434L26.3678 15.8434C26.7545 15.8542 27.0961 15.8216 27.3935 15.7464C27.685 15.6727 27.8615 15.5394 27.9493 15.3534C28.0125 15.1931 28.0653 15.0115 28.097 14.7976C28.1292 14.5802 28.1506 14.3526 28.1506 14.1147C28.1506 13.8766 28.1292 13.638 28.0969 13.4094C28.065 13.1832 28.0118 12.9786 27.9479 12.7954C27.8766 12.6001 27.744 12.4339 27.5569 12.2973C27.3675 12.1589 27.135 12.0411 26.848 11.9551C26.557 11.8679 26.2456 11.7919 25.8916 11.7485C25.5332 11.7046 25.1658 11.6609 24.7771 11.639L24.7763 11.639V11.639C24.1377 11.5952 23.4879 11.5842 22.8268 11.5952L17.7609 17.8291ZM17.7609 17.8291L17.7604 17.8268M17.7609 17.8291L17.7604 17.8268M17.7604 17.8268C17.718 17.6015 17.7072 17.3752 17.7072 17.1352C17.7072 16.8975 17.7285 16.6818 17.7712 16.4662C17.8141 16.2494 17.8673 16.0669 17.9304 15.9181L17.9304 15.9181M17.7604 17.8268L17.9304 15.9181M17.9304 15.9181L17.9307 15.9173M17.9304 15.9181L17.9307 15.9173M17.9307 15.9173C18.0044 15.7363 18.0995 15.5756 18.2069 15.4126C18.3102 15.2666 18.4553 15.1301 18.6321 15.0248C18.8211 14.9187 19.054 14.8328 19.332 14.7679C19.608 14.7035 19.972 14.6706 20.404 14.6706C21.0346 14.6706 21.6435 14.6596 22.2416 14.6377C22.8403 14.6156 23.4496 14.5716 24.08 14.5166L24.08 14.5168M17.9307 15.9173L24.08 14.5168M24.08 14.5168L24.0849 14.516M24.08 14.5168L24.0849 14.516M24.0849 14.516C24.1555 14.5041 24.2248 14.4789 24.2705 14.4327C24.3175 14.3852 24.3318 14.3239 24.3318 14.2794C24.3318 14.209 24.2943 14.1599 24.2422 14.1205C24.215 14.0998 24.1853 14.0843 24.1506 14.0765C24.1172 14.069 24.0826 14.0694 24.0456 14.0754C23.4608 14.1191 22.8977 14.152 22.3346 14.1739C21.7707 14.1958 21.2068 14.2068 20.6537 14.2068C20.123 14.2068 19.6914 14.1849 19.3474 14.1414C19.0026 14.0978 18.7386 14.0329 18.541 13.9382C18.3425 13.8432 18.2126 13.7299 18.1336 13.5901C18.0538 13.4487 18.0221 13.2847 18.0221 13.0822C18.0221 12.7057 18.2304 12.4051 18.6838 12.1704L18.6838 12.1704M24.0849 14.516L18.6838 12.1704M18.6838 12.1704L18.6844 12.1702M18.6838 12.1704L18.6844 12.1702M18.6844 12.1702C19.1293 11.9345 19.8359 11.7705 20.7889 11.6938M18.6844 12.1702L20.7889 11.6938M20.7889 11.6938C21.4936 11.639 22.1765 11.6061 22.8268 11.5952L20.7889 11.6938Z" fill="#FF8821" stroke="white" stroke-width="0.12337"/>
<path d="M11.7559 27.4473L11.7559 27.4462C11.734 26.7166 11.6137 26.1235 11.3683 25.6722C11.1258 25.2263 10.8253 24.8972 10.475 24.7139C10.388 24.664 10.2939 24.6478 10.2084 24.6766C10.1361 24.701 10.0661 24.7407 10.023 24.8134C9.98355 24.8799 9.96813 24.9519 9.99431 25.0355C10.0104 25.123 10.0699 25.1915 10.1695 25.2305C10.4387 25.378 10.6683 25.6099 10.8472 25.9397C11.0246 26.267 11.1112 26.7382 11.1112 27.3602C11.1112 28.2481 10.8442 28.8633 10.3221 29.2435L10.3221 29.2435L10.3208 29.2444C9.79232 29.6507 9.06892 29.8467 8.14297 29.8467C7.21131 29.8467 6.47952 29.5656 5.95052 29.0092C5.42184 28.4531 5.15299 27.6467 5.15299 26.5913C5.15299 25.785 5.28229 25.0573 5.53936 24.4289C5.7967 23.7999 6.17158 23.2586 6.65295 22.8258C7.13446 22.3929 7.73481 22.0564 8.43363 21.8281C9.13247 21.5997 9.92953 21.4797 10.8145 21.4797C11.6662 21.4797 12.4188 21.6105 13.0732 21.86C13.7278 22.1097 14.2738 22.4673 14.7123 22.9217C15.1508 23.3759 15.4831 23.9282 15.7195 24.5691C15.945 25.221 16.0634 25.9279 16.0634 26.7122C16.0634 27.2148 16.031 27.6507 15.9665 28.0421C15.9022 28.4323 15.7956 28.754 15.6376 29.0202C15.4796 29.2865 15.2809 29.4868 15.0312 29.6237C14.7814 29.7605 14.4662 29.8358 14.0943 29.8358C13.3336 29.8358 12.7641 29.6409 12.3661 29.2702C11.9712 28.9023 11.7666 28.2964 11.7559 27.4473Z" fill="#FF8821" stroke="white" stroke-width="0.12337"/>
<path d="M21.8483 26.4925C21.7723 26.4925 21.7289 26.4595 21.6963 26.4046C21.6637 26.3497 21.6528 26.2838 21.6528 26.2179C21.6528 26.152 21.6637 26.0861 21.6963 26.0312C21.7289 25.9762 21.7832 25.9433 21.8483 25.9433M21.8483 26.4925L27.9047 25.6946M21.8483 26.4925L27.4304 26.4705L21.8483 26.4925ZM21.8483 25.9433L27.4086 25.9213C27.6693 25.9213 27.8431 25.8554 27.9517 25.7346L27.9058 25.6934C27.9054 25.6938 27.9051 25.6942 27.9047 25.6946M21.8483 25.9433L21.8481 25.8816L21.8482 25.8816C21.7602 25.8817 21.6863 25.9271 21.6432 25.9997C21.6028 26.0678 21.5912 26.1462 21.5912 26.2179C21.5912 26.2896 21.6028 26.368 21.6432 26.4361C21.6628 26.4691 21.6882 26.4997 21.7236 26.5216C21.7594 26.5438 21.801 26.5542 21.8483 26.5542L21.8486 26.5542L27.4306 26.5322V26.5322L27.4326 26.5322C27.711 26.5221 27.9304 26.6504 28.0944 26.92C28.2597 27.1915 28.3461 27.5957 28.3461 28.1401C28.3461 28.6625 28.2596 29.0435 28.0956 29.2924C27.9313 29.5416 27.7078 29.6852 27.4218 29.7265C25.9906 29.9239 24.625 30.0335 23.325 30.0445C22.0248 30.0445 20.7467 29.9568 19.5013 29.7706C18.9205 29.6744 18.4688 29.3871 18.1529 28.9186C17.8359 28.4375 17.6637 27.7806 17.6637 26.9318V24.3067C17.6637 23.581 17.7773 23.0366 17.9985 22.666C18.2172 22.2995 18.5437 22.0986 18.9859 22.0616C20.4398 21.9629 21.8718 21.908 23.2601 21.908L23.2606 21.908C24.6494 21.8971 26.071 21.93 27.5256 21.9849C27.7774 21.9955 27.9371 22.069 28.0191 22.198C28.1085 22.3387 28.1615 22.5347 28.1615 22.8129C28.1615 23.0673 28.1092 23.2881 28.0164 23.4763C27.967 23.5658 27.9045 23.6305 27.8268 23.6733C27.7484 23.7166 27.6507 23.7398 27.5281 23.7398H21.8483C21.8089 23.7398 21.771 23.7464 21.7364 23.7649C21.7023 23.7832 21.6762 23.8104 21.6557 23.8442C21.6133 23.9029 21.602 23.9724 21.602 24.0431C21.602 24.1148 21.6136 24.1853 21.6576 24.2446C21.6977 24.2987 21.7576 24.3464 21.8483 24.3464H27.4086C27.6618 24.3464 27.8203 24.4107 27.9007 24.5283L27.9007 24.5283L27.9026 24.5308C27.9986 24.6571 28.042 24.8487 28.042 25.1305C28.042 25.4095 27.9887 25.5898 27.9047 25.6946M21.8483 25.9433V25.8816L27.4084 25.8596L27.4086 25.8596C27.6587 25.8596 27.8121 25.7968 27.9047 25.6946" fill="#FF8821" stroke="white" stroke-width="0.12337"/>
<path d="M31.1365 12.2198C31.7583 12.587 32.5585 12.4054 32.9609 11.8058C33.3958 11.1578 33.1987 10.2777 32.529 9.87706L17.3402 0.790774C17.0112 0.593976 16.6007 0.593916 16.2717 0.79062L1.07895 9.87327C0.405805 10.2757 0.209294 11.1612 0.649021 11.8106C1.05344 12.4078 1.85266 12.5875 2.47374 12.2207L16.8059 3.75713L31.1365 12.2198Z" fill="#FF8821" stroke="#FF8821" stroke-width="0.539743"/>
</svg>
