<svg width="57" height="16" viewBox="0 0 57 16" fill="none" xmlns="http://www.w3.org/2000/svg">
<path d="M1.16342 3.21474C1.16342 2.62873 1.39473 2.18152 1.84195 1.84225C2.70554 1.20998 4.37103 0.978662 6.82301 0.978662C9.29041 0.978662 10.9405 1.20998 11.7886 1.84225C12.2359 2.18152 12.4672 2.62873 12.4672 3.21474C12.4672 3.78533 12.2359 4.23254 11.7886 4.57181C11.033 5.12697 9.64509 5.37371 7.60949 5.41998V6.57657H13.0995V7.9799H0.500303V6.57657H5.944V5.41998C3.97008 5.37371 2.59759 5.12697 1.84195 4.57181C1.39473 4.23254 1.16342 3.78533 1.16342 3.21474ZM2.84433 3.21474C2.84433 3.38437 2.93686 3.53859 3.12191 3.67738C3.61539 3.97038 4.84909 4.07833 6.82301 4.07833C8.79693 4.07833 10.0306 3.97038 10.5241 3.67738C10.7092 3.53859 10.8017 3.38437 10.8017 3.21474C10.8017 3.02969 10.7092 2.87547 10.5241 2.7521C10.0306 2.44368 8.79693 2.33573 6.82301 2.33573C4.84909 2.33573 3.61539 2.44368 3.12191 2.7521C2.93686 2.87547 2.84433 3.02969 2.84433 3.21474ZM3.09107 12.7451V13.7629H12.498V15.1199H1.42558V11.4034H10.5087V10.3702H1.42558V9.01312H12.1896V12.7451H3.09107ZM19.5603 14.0404H15.7821V6.83873H19.144V2.72126H15.7821V1.24082H20.794V8.30375H17.4168V12.5754H19.8842C21.0408 12.5754 21.9044 12.3595 22.4441 11.8969V1.08661H24.0479V6.56115H25.6209V0.994083H27.2555V14.9811H25.6209V8.02617H24.0479V14.8115H22.4441V13.2694C21.9044 13.7783 20.902 14.0404 19.5603 14.0404ZM36.3997 5.80551C35.459 7.44016 33.4851 8.98228 30.4317 9.56829V8.07243C33.6239 7.34763 35.5516 5.35829 35.5516 2.30489V1.16372H37.2171V2.30489C37.2171 5.35829 39.191 7.34763 42.3677 8.07243V9.56829C39.3298 8.98228 37.3404 7.44016 36.3997 5.80551ZM30.2004 14.3643V12.9147H42.6145V14.3643H30.2004ZM49.0445 8.58133H45.2972V1.16372H50.4016V2.50536H46.9164V4.18628H50.0623V5.51251H46.9164V7.2551H49.1216C49.9081 7.2551 50.6792 7.20884 51.3269 7.00836V8.27291C50.6792 8.4888 49.8773 8.58133 49.0445 8.58133ZM50.7254 5.49708V4.03207H52.2984V1.08661H53.8714V8.84349H52.2984V5.49708H50.7254ZM55.2593 8.9206V0.994083H56.8785V8.9206H55.2593ZM55.213 11.0179V9.6454H56.8785V15.1199H46.2996V9.6454H47.9805V11.0179H55.213ZM55.213 12.4212H47.9805V13.7166H55.213V12.4212Z" fill="#FF8821"/>
</svg>
