<svg width="134" height="119" viewBox="0 0 134 119" fill="none" xmlns="http://www.w3.org/2000/svg">
<path d="M52.6288 77.6001L52.6288 77.6001L52.6245 77.6009C49.8865 78.1201 46.4543 78.338 42.4075 78.338C38.3215 78.338 34.8869 78.077 32.1017 77.6004C29.3177 77.0804 27.1108 76.3039 25.4234 75.1946C23.7394 74.0876 22.5629 72.6425 21.8052 70.897C21.0462 69.1485 20.6612 66.9599 20.6612 64.3656C20.6612 61.3825 21.1313 58.7092 22.0675 56.2989C23.0024 53.8921 24.4037 51.8736 26.2306 50.1979C28.056 48.5233 30.3101 47.2312 33.0414 46.3248C35.7727 45.4184 38.8509 44.9417 42.3644 44.9417C45.8782 44.9417 48.9558 45.4184 51.6432 46.3244C54.3311 47.2306 56.5863 48.5228 58.4561 50.1988C60.2824 51.8744 61.6834 53.8925 62.6181 56.2989C63.5544 58.7092 64.0245 61.3825 64.0245 64.3656C64.0245 66.9595 63.6396 69.1504 62.9217 70.9016C62.2087 72.6406 60.9921 74.0858 59.3054 75.1946C57.6159 76.3053 55.4079 77.1244 52.6288 77.6001ZM45.5984 68.0558C45.7384 68.0558 45.8824 68.0275 46.0111 67.9494C46.1371 67.8729 46.2318 67.7587 46.2928 67.6144C46.4414 67.3568 46.4901 67.0993 46.4901 66.8514C46.4901 66.5984 46.4393 66.3352 46.2834 66.0723C46.1153 65.7891 45.8675 65.647 45.5984 65.647H39.001C38.8611 65.647 38.717 65.6754 38.5883 65.7535C38.4623 65.8299 38.3676 65.9442 38.3066 66.0884C38.158 66.346 38.1093 66.6036 38.1093 66.8514C38.1093 67.1045 38.1601 67.3676 38.3161 67.6306C38.4841 67.9138 38.7319 68.0558 39.001 68.0558H45.5984Z" fill="#FF8821" stroke="white" stroke-width="0.489844"/>
<path d="M70.7212 69.9117L70.7211 69.9117C70.8468 70.7593 71.0987 71.5681 71.3949 72.296C72.0129 73.7531 73.2553 74.9813 75.25 76.0547C77.2363 77.08 80.0454 77.7729 83.6481 78.0332C86.7891 78.2507 89.8877 78.3378 92.9012 78.3378C95.9099 78.3378 99.0471 78.1639 102.227 77.7729C103.81 77.5565 105.265 77.2536 106.636 76.907C108.002 76.5183 109.185 76.0465 110.15 75.4522L110.154 75.4498L110.154 75.4498C111.159 74.8571 111.904 74.1427 112.441 73.2651C112.971 72.3993 113.222 71.3175 113.139 70.051L113.138 70.0432L113.139 70.0432C113.097 68.818 112.763 67.8201 112.235 67.0808C111.704 66.3372 110.923 65.7093 109.837 65.2447C108.745 64.7774 107.433 64.476 105.805 64.2593C104.181 64.0432 102.339 63.9561 100.232 63.9561C97.5257 63.9561 94.7763 64.1299 91.9833 64.4775C89.2284 64.8258 86.6945 65.1734 84.42 65.607C84.0652 65.7066 83.747 65.6582 83.5199 65.5434L83.5001 65.5334L83.4824 65.52C83.314 65.3922 83.0837 65.1953 83.0837 64.8887L83.0837 64.8794C83.0836 64.7017 83.0835 64.4394 83.3269 64.1932C83.546 63.9716 83.814 63.8705 84.123 63.7812L84.1346 63.7778L84.1347 63.7781C86.7367 63.1641 89.7241 62.7266 93.0947 62.4206C96.4684 62.1144 100.401 61.9835 104.891 62.0271L104.896 62.0272V62.0272C106.431 62.0703 107.787 61.9407 108.968 61.6421C110.125 61.3494 110.826 60.82 111.175 60.0815C111.426 59.4453 111.635 58.7242 111.761 57.8749C111.889 57.0117 111.974 56.1081 111.974 55.1634C111.974 54.2182 111.889 53.2705 111.761 52.3629C111.634 51.4648 111.423 50.6523 111.169 49.925C110.886 49.1497 110.36 48.4898 109.617 47.9472C108.865 47.3979 107.942 46.93 106.802 46.5884C105.647 46.2422 104.41 45.9406 103.005 45.7683C101.582 45.5939 100.123 45.4204 98.5793 45.3336L98.5763 45.3335L98.5763 45.3334C96.0407 45.1596 93.4606 45.116 90.8356 45.1595L70.7212 69.9117ZM70.7212 69.9117L70.7195 69.9023M70.7212 69.9117L70.7195 69.9023M70.7195 69.9023C70.5511 69.008 70.5081 68.1094 70.5081 67.1565C70.5081 66.2125 70.5929 65.3562 70.7622 64.5001C70.9324 63.6392 71.1438 62.9149 71.3942 62.324L71.3942 62.324M70.7195 69.9023L71.3942 62.324M71.3942 62.324L71.3956 62.3208M71.3942 62.324L71.3956 62.3208M71.3956 62.3208C71.6882 61.6019 72.0657 60.9639 72.4921 60.3168C72.9023 59.737 73.4785 59.1952 74.1804 58.7771C74.931 58.3557 75.8558 58.0145 76.9594 57.7569C78.0553 57.5011 79.5008 57.3708 81.2157 57.3708C83.7195 57.3708 86.1372 57.3271 88.512 57.2398C90.8893 57.1524 93.3085 56.9776 95.8116 56.7593L95.8213 56.7585M71.3956 62.3208L95.8213 56.7585M95.8213 56.7585L95.831 56.7568M95.8213 56.7585L95.831 56.7568M95.831 56.7568C96.1115 56.7095 96.3864 56.6096 96.5681 56.4258C96.7546 56.2373 96.8114 55.994 96.8114 55.8175C96.8114 55.538 96.6623 55.3429 96.4557 55.1863C96.3474 55.1041 96.2296 55.0426 96.0919 55.0116C95.9592 54.9818 95.8218 54.9835 95.6749 55.0072C93.3529 55.181 91.1171 55.3114 88.8815 55.3983C86.6424 55.4854 84.4034 55.529 82.2075 55.529C80.1003 55.529 78.3866 55.4419 77.0206 55.2693C75.6517 55.0962 74.6035 54.8388 73.8186 54.4627C73.0307 54.0853 72.5149 53.6355 72.2012 53.0804C71.8842 52.5192 71.7586 51.8677 71.7586 51.0639C71.7586 49.5691 72.5856 48.3752 74.3859 47.4436L74.3859 47.4436M95.831 56.7568L74.3859 47.4436M74.3859 47.4436L74.388 47.4425M74.3859 47.4436L74.388 47.4425M74.388 47.4425C76.1545 46.5066 78.9603 45.8558 82.7442 45.5513M74.388 47.4425L82.7442 45.5513M82.7442 45.5513C85.5423 45.3336 88.2538 45.2031 90.8355 45.1595L82.7442 45.5513Z" fill="#FF8821" stroke="white" stroke-width="0.489844"/>
<path d="M46.8782 108.101H46.8782L46.8781 108.097C46.7913 105.199 46.3137 102.845 45.3392 101.053C44.3764 99.2821 43.1831 97.9753 41.7923 97.2479C41.447 97.0496 41.0735 96.9852 40.7338 97.0997C40.4468 97.1965 40.169 97.3543 39.9977 97.643C39.8411 97.907 39.7798 98.1928 39.8838 98.5245C39.9478 98.8722 40.184 99.1441 40.5795 99.299C41.6484 99.8847 42.5601 100.805 43.2702 102.115C43.9747 103.414 44.3186 105.285 44.3186 107.755C44.3186 111.281 43.2585 113.723 41.1853 115.233L41.1853 115.233L41.1802 115.236C39.0818 116.849 36.2095 117.628 32.533 117.628C28.8338 117.628 25.9282 116.512 23.8278 114.302C21.7286 112.094 20.6612 108.893 20.6612 104.702C20.6612 101.501 21.1745 98.611 22.1953 96.1162C23.217 93.6188 24.7055 91.4694 26.6168 89.7511C28.5287 88.0323 30.9124 86.6962 33.6871 85.7895C36.4618 84.8828 39.6266 84.4061 43.1405 84.4061C46.522 84.4061 49.5102 84.9255 52.1085 85.9164C54.7077 86.9076 56.8757 88.3276 58.6169 90.1316C60.3577 91.9351 61.6773 94.1282 62.6158 96.6729C63.5113 99.2614 63.9814 102.068 63.9814 105.182C63.9814 107.178 63.8527 108.908 63.5965 110.463C63.3413 112.012 62.918 113.289 62.2908 114.346C61.6635 115.404 60.8746 116.199 59.8828 116.742C58.8911 117.286 57.6397 117.584 56.1628 117.584C53.1424 117.584 50.8812 116.81 49.3012 115.339C47.7331 113.878 46.9209 111.472 46.8782 108.101Z" fill="#FF8821" stroke="white" stroke-width="0.489844"/>
<path d="M92.5581 86.1068L92.5561 86.1068C87.0437 86.1068 81.3581 86.3246 75.5853 86.7167C73.8293 86.8634 72.5331 87.6611 71.6646 89.1165C70.7865 90.5879 70.3355 92.7496 70.3355 95.6308V106.054C70.3355 109.424 71.0191 112.032 72.2779 113.943C73.5322 115.803 75.3254 116.943 77.6316 117.325C82.5763 118.065 87.6513 118.413 92.8137 118.413C97.9755 118.369 103.397 117.934 109.08 117.15C110.216 116.986 111.103 116.416 111.756 115.427C112.407 114.439 112.75 112.925 112.75 110.851C112.75 108.69 112.407 107.085 111.751 106.007C111.1 104.937 110.229 104.427 109.123 104.467L109.115 104.467V104.467L86.9515 104.554L86.9505 104.554C86.7626 104.554 86.5976 104.513 86.4552 104.425C86.3146 104.338 86.2141 104.217 86.1362 104.086C85.9757 103.815 85.9295 103.504 85.9295 103.219C85.9295 102.934 85.9757 102.623 86.1362 102.353C86.3073 102.065 86.6006 101.884 86.95 101.884L86.9496 101.884L86.9505 102.129V101.884L92.5581 86.1068ZM92.5581 86.1068C98.0723 86.0632 103.717 86.1939 109.493 86.4119M92.5581 86.1068L109.493 86.4119M109.493 86.4119C110.492 86.4541 111.126 86.7459 111.452 87.258C111.807 87.8169 112.017 88.5952 112.017 89.6997C112.017 90.7098 111.81 91.5865 111.441 92.3339C111.245 92.6892 110.997 92.9458 110.688 93.1159C110.377 93.2876 109.989 93.3798 109.502 93.3798H86.9505C86.7941 93.3798 86.6434 93.4062 86.5061 93.4797C86.3709 93.5521 86.2672 93.6603 86.1857 93.7944L109.493 86.4119ZM110.998 101.141C110.996 101.143 110.995 101.145 110.994 101.146L111.184 101.3L111.002 101.137C111 101.138 110.999 101.14 110.998 101.141Z" fill="#FF8821" stroke="white" stroke-width="0.489844"/>
<path d="M123.83 47.6392C126.299 49.097 129.476 48.376 131.074 45.9955C132.8 43.4226 132.018 39.928 129.359 38.3373L69.0509 2.25987C67.7447 1.47847 66.1147 1.47824 64.8083 2.25926L4.48516 38.3222C1.81241 39.9201 1.03215 43.436 2.7781 46.0145C4.38384 48.3858 7.55719 49.0991 10.0232 47.6428L66.9296 14.0379L123.83 47.6392Z" fill="#FF8821" stroke="#FF8821" stroke-width="2.14307"/>
</svg>
