<svg width="117" height="117" viewBox="0 0 117 117" fill="none" xmlns="http://www.w3.org/2000/svg">
<g clip-path="url(#clip0_206_795)">
<rect x="0.184082" y="0.5" width="116" height="116" rx="12" fill="#CDCED6"/>
<path d="M25.8775 60.8977C25.8775 60.8977 22.3001 62.4248 21.2689 66.909C20.2377 71.3933 23.2283 83.1154 32.718 83.2172C42.2068 83.32 31.4465 58.7579 25.8775 60.8977Z" fill="#E8E8EE" stroke="#8C8F9F" stroke-miterlimit="10"/>
<path d="M89.8586 60.8977C89.8586 60.8977 93.4359 62.4248 94.4671 66.909C95.4983 71.3943 92.5078 83.1154 83.018 83.2172C73.5282 83.32 84.2885 58.7579 89.8586 60.8977Z" fill="#E8E8EE" stroke="#8C8F9F" stroke-miterlimit="10"/>
<path d="M62.4236 94.4949C62.4236 94.4949 24.9816 81.2038 21.7841 115.955H93.4713C93.4713 115.955 94.1935 85.6342 62.4236 94.4949Z" fill="#E8E8EE" stroke="#8C8F9F" stroke-miterlimit="10"/>
<path d="M33.8383 44.8233C33.8383 44.8233 34.7594 19.4887 64.6719 25.0948C94.5844 30.7009 75.3039 56.3418 75.3039 56.3418L33.8383 44.8233Z" fill="#E8E8EE" stroke="#8C8F9F" stroke-miterlimit="10"/>
<path d="M30.1925 65.2783C30.1925 65.2783 23.6943 99.9336 57.8356 98.6092C91.9769 97.2838 84.9636 63.2403 84.9636 63.2403C84.9636 63.2403 50.3062 57.1242 30.1925 65.2783Z" fill="#E8E8EE" stroke="#8C8F9F" stroke-miterlimit="10"/>
<path d="M80.2149 43.6881C80.2149 43.6881 53.0869 48.2752 34.6245 43.6881C16.1621 39.1011 24.4702 65.1512 29.5989 64.765C34.7275 64.3787 75.4781 68.8051 86.9202 62.9515C95.6878 58.4673 93.0053 39.6101 80.2149 43.6881Z" fill="#E8E8EE" stroke="#8C8F9F" stroke-miterlimit="10"/>
<ellipse cx="2.17483" cy="1.11857" rx="2.17483" ry="1.11857" transform="matrix(0.98224 -0.187631 0.193892 0.981023 80.1125 47.2781)" fill="#8C8F9F"/>
<ellipse cx="1.608" cy="0.827037" rx="1.608" ry="0.827037" transform="matrix(0.98224 -0.187631 0.193892 0.981023 75.5795 50.3623)" fill="#8C8F9F"/>
<ellipse cx="48.2117" cy="75.6864" rx="2.39758" ry="2.35709" fill="#8C8F9F"/>
<ellipse cx="65.8662" cy="75.6864" rx="2.39758" ry="2.35709" fill="#8C8F9F"/>
<path d="M51.8349 84.1076C51.0011 82.0416 52.1888 80.0158 53.6587 78.4658C55.5987 76.42 58.7614 76.5376 60.602 78.6703C62.6649 81.0605 62.8168 83.0179 62.2002 84.4406C61.4395 86.1959 59.0949 86.1574 57.3274 85.3694C57.2561 85.3376 57.1744 85.3361 57.1019 85.3652C55.1631 86.1457 52.6075 86.0221 51.8349 84.1076Z" fill="#CDCED6"/>
<path fill-rule="evenodd" clip-rule="evenodd" d="M60.2405 78.9721C58.5781 77.0459 55.7468 76.9486 54.0063 78.7839C52.5556 80.3137 51.5531 82.143 52.2765 83.9354C52.5871 84.705 53.254 85.1355 54.1154 85.2876C54.9882 85.4418 56.0199 85.1038 56.9225 84.7404C57.1161 84.6625 57.3337 84.6667 57.5238 84.7514C58.3479 85.1188 59.287 85.4938 60.0827 85.3956C60.8638 85.2992 61.4663 84.9443 61.7639 84.2576C62.2912 83.0409 62.222 81.268 60.2405 78.9721ZM53.3119 78.1475C55.4515 75.8913 58.9456 76.0291 60.9644 78.3683C63.1086 80.8528 63.3432 82.9946 62.6373 84.6234C62.1742 85.692 61.224 86.1955 60.2009 86.3217C59.2186 86.4428 58.1338 86.034 57.2063 85.6341C56.187 86.03 55.0041 86.3928 53.9476 86.2063C52.8533 86.013 51.8561 85.4246 51.3941 84.2796C50.4498 81.9399 51.8228 79.7177 53.3119 78.1475Z" fill="#8C8F9F"/>
</g>
<rect x="1.18408" y="1.5" width="114" height="114" rx="11" stroke="#F0F0F5" stroke-width="2"/>
<defs>
<clipPath id="clip0_206_795">
<rect x="0.184082" y="0.5" width="116" height="116" rx="12" fill="white"/>
</clipPath>
</defs>
</svg>
